<?xml version="1.0" encoding="UTF-8"?>
<svg width="16px" height="14px" viewBox="0 0 16 14" version="1.1" xmlns="http://www.w3.org/2000/svg" xmlns:xlink="http://www.w3.org/1999/xlink">
    <!-- Generator: sketchtool 40.3 (33839) - http://www.bohemiancoding.com/sketch -->
    <title>A48EAE06-A03F-4E5C-A0A2-EBD250DA40C5</title>
    <desc>Created with sketchtool.</desc>
    <defs></defs>
    <g id="Symbols" stroke="none" stroke-width="1" fill="none" fill-rule="evenodd">
        <g id="Theme-Card-hover" transform="translate(-178.000000, -198.000000)" fill="#95A5A6">
            <g id="car-info-area" transform="translate(10.000000, 194.000000)">
                <g id="Group-2" transform="translate(168.000000, 3.000000)">
                    <path d="M8,6 C7.7225,6 7.5,6.224 7.5,6.5 L7.5,13.293 L6.3525,12.1465 C6.1575,11.95125 5.84,11.95125 5.645,12.1465 C5.45,12.34175 5.45,12.6585 5.645,12.85375 L7.645,14.85375 C7.7425,14.95125 7.8725,15 8,15 C8.1275,15 8.255,14.95125 8.3525,14.85375 L10.3525,12.85375 C10.5475,12.6585 10.5475,12.34175 10.3525,12.1465 C10.1575,11.95125 9.84,11.95125 9.645,12.1465 L8.5,13.293 L8.5,6.5 C8.5,6.224 8.275,6 8,6 L8,6 Z M13.98,6.0465 C13.75,3.22525 11.38,1 8.5,1 C5.9425,1 3.7375,2.65875 3.1025,5 L3,5 C1.345,5 0,6.346 0,8 C0,9.65425 1.345,11 3,11 L6,11 C6.275,11 6.5,10.77625 6.5,10.5 C6.5,10.224 6.275,10 6,10 L3,10 C1.8975,10 1,9.10275 1,8 C1,6.89725 1.8975,6 3,6 L3.5,6 C3.74,6 3.9475,5.82875 3.99,5.5925 C4.3825,3.511 6.2775,2 8.5,2 C10.98,2 13,4.01875 13,6.5 C13,6.77625 13.2225,7 13.5,7 C14.3275,7 15,7.673 15,8.5 C15,9.32725 14.3275,10 13.5,10 L10,10 C9.7225,10 9.5,10.224 9.5,10.5 C9.5,10.77625 9.7225,11 10,11 L13.5,11 C14.8775,11 16,9.87875 16,8.5 C16,7.28625 15.13,6.27175 13.98,6.0465 L13.98,6.0465 Z" id="38"></path>
                </g>
            </g>
        </g>
    </g>
</svg>