<?xml version="1.0" encoding="UTF-8"?>
<svg width="14px" height="18px" viewBox="0 0 14 18" version="1.1" xmlns="http://www.w3.org/2000/svg" xmlns:xlink="http://www.w3.org/1999/xlink">
    <!-- Generator: sketchtool 40.3 (33839) - http://www.bohemiancoding.com/sketch -->
    <title>5CA43FB8-9451-4E6F-99E7-6531A04F2318</title>
    <desc>Created with sketchtool.</desc>
    <defs></defs>
    <g id="Symbols" stroke="none" stroke-width="1" fill="none" fill-rule="evenodd">
        <g id="Theme-Card" transform="translate(-10.000000, -194.000000)" fill="#2ECC71">
            <g id="car-info-area" transform="translate(10.000000, 194.000000)">
                <path d="M5.64206882,13.1402441 C6.23599259,12.7420926 6.38308261,12.1573837 6.26763607,11.7821825 C6.22556068,11.6443073 6.11185279,11.4243677 5.81749888,11.3708172 C5.57686934,11.6556085 5.19645213,11.9167542 4.63208545,12.1019207 C3.86047138,12.3540253 3.12223943,12.4493035 2.4695492,12.4501728 C1.67828834,12.4501728 1.01516619,12.309342 0.574243864,12.1365199 C0.452538174,12.4305261 0.376385184,12.9675959 1.04176758,13.5031009 C2.06061808,14.3218325 4.55367222,13.8692612 5.64206882,13.1402441 Z M6.88364073,14.5781099 C7.03073075,14.3112267 7.00308617,13.9308095 6.81757193,13.6736628 C6.72716199,13.5479582 6.56511955,13.4104307 6.29841022,13.4412049 C6.21008667,13.5241386 6.11150506,13.602378 6.00127447,13.6762707 C5.36649236,14.1018929 4.35824765,14.4348449 3.37138836,14.5462926 C3.13197588,14.5723724 2.90056121,14.5859338 2.67940458,14.5859338 C2.26282339,14.5859338 1.88136298,14.5386425 1.54423822,14.4470155 C1.54371662,14.6087102 1.57709875,14.8595978 1.74974697,15.0951852 C2.01106647,15.4519568 2.51145073,15.6691145 3.23699051,15.7398777 C5.31381119,15.9415614 6.57642079,15.1341311 6.88364073,14.5781099 Z M7.60379069,15.7004102 C7.59057693,15.5811387 7.51268529,15.4152712 7.38750229,15.3292079 C7.32056416,15.2829597 7.24562823,15.2655732 7.15939105,15.2744403 C6.87546906,15.5717499 6.47210163,15.8358513 5.99536305,16.0316236 C5.37501176,16.2861623 4.65364475,16.4162136 3.87907496,16.4162136 C3.66504681,16.4162136 3.44754135,16.4061294 3.22638473,16.385961 C3.30479797,16.5650422 3.4463243,16.78985 3.6956471,16.9727563 C4.15134798,17.3081424 4.82385885,17.4001171 5.69475,17.2481589 C6.42133297,17.1207157 6.97770184,16.8541802 7.30422082,16.4767187 C7.55528228,16.187233 7.62343746,15.8860984 7.60379069,15.7004102 Z M13.4470548,9.35867444 C12.9004223,9.35241529 11.5976499,9.29173631 11.0092898,8.86698345 C10.6970277,8.64182792 10.3583382,8.29461897 9.96696747,7.89246859 C9.4897073,7.40269012 8.9489863,6.84771217 8.27438904,6.31377192 C6.83843576,5.17877942 6.1308041,3.40326726 6.51243837,1.89585535 C6.74507011,0.979411503 6.68943322,0.323591696 6.36065399,0.0975668416 C6.09985608,-0.0816882542 5.66693156,0.00680916944 5.39848357,0.195279125 C4.74005579,0.659847132 3.71859731,1.81692052 4.27305367,4.34300906 C4.57888268,5.73549603 5.75629831,7.52561287 5.76846887,7.54334713 C5.8359286,7.64557991 5.83940591,7.77771751 5.77820533,7.88360147 C5.71648316,7.98983315 5.60051502,8.05155532 5.47811387,8.04320979 C4.4225778,7.97331595 1.48268991,7.99783095 0.569723367,8.93774661 C0.159401324,9.36006536 -0.031155014,9.81872195 0.00413963626,10.3017197 C0.0422161309,10.8314872 0.349783798,11.2543275 0.534428717,11.3963754 C0.554075493,11.4115017 0.578938226,11.4273234 0.606061209,11.4431452 C0.608321458,11.4450577 0.611277167,11.4461009 0.613537416,11.4480134 C1.0977522,11.726024 2.6562805,12.0699295 4.4310972,11.4890456 C4.89131858,11.3381306 5.22583536,11.1173217 5.39257216,10.8686943 C5.39639719,10.8622613 5.40074382,10.8554806 5.40474272,10.849743 C5.48732873,10.7184747 5.52366657,10.580078 5.50680164,10.4401164 C5.46072734,10.0501366 5.01945728,9.74465534 4.43457451,9.69771172 C2.97497554,9.58156972 1.96047168,10.0720436 1.95056136,10.0772596 C1.79130077,10.1560206 1.59796259,10.0911688 1.51902775,9.93138664 C1.43991905,9.77229992 1.50407534,9.57983106 1.66333593,9.49967917 C1.71062728,9.47638123 2.83710038,8.92383739 4.48534316,9.05458407 C5.3948324,9.12725976 6.06282278,9.65354994 6.14801676,10.3643112 C6.1638385,10.497492 6.15601457,10.640757 6.12089378,10.7874992 C6.48514153,10.914247 6.7626305,11.1988645 6.8838146,11.5928432 C6.99282812,11.9468329 6.96744379,12.4108793 6.74593944,12.8509323 C6.97874503,12.9270853 7.18338446,13.0788697 7.3403848,13.2963751 C7.62604544,13.6915709 7.69646088,14.2348999 7.53824348,14.6862541 C7.61335328,14.7138987 7.68429031,14.7505843 7.75227163,14.797354 C8.07322692,15.0183368 8.21875216,15.3848448 8.24517968,15.6319073 C8.28673348,16.0199746 8.1349491,16.6632761 7.50381816,17.1791344 C9.66931012,17.2292076 11.2424431,15.1059649 11.2591342,15.0817976 C11.3205086,14.99869 11.4173516,14.9493123 11.5206275,14.9493123 L13.4760903,14.9493123 C13.5884072,14.7138987 13.7920035,14.216644 13.9098841,13.5027532 C14.0588867,12.5986538 14.0934858,11.1576584 13.4470548,9.35867444 Z" id="Combined-Shape" transform="translate(7.000000, 8.659586) scale(-1, 1) translate(-7.000000, -8.659586) "></path>
            </g>
        </g>
    </g>
</svg>