<?xml version="1.0" encoding="UTF-8"?>
<svg width="34px" height="32px" viewBox="0 0 34 32" version="1.1" xmlns="http://www.w3.org/2000/svg" xmlns:xlink="http://www.w3.org/1999/xlink">
    <!-- Generator: sketchtool 41.2 (35397) - http://www.bohemiancoding.com/sketch -->
    <title>76BB919C-5516-422A-9EA6-8197958F851E</title>
    <desc>Created with sketchtool.</desc>
    <defs></defs>
    <g id="Sprint-3" stroke="none" stroke-width="1" fill="none" fill-rule="evenodd">
        <g id="sprint_3/006-Installed-Styles-Zero" transform="translate(-80.000000, -421.000000)" fill="#95A5A6">
            <g id="Popout-Background" transform="translate(28.000000, 25.000000)">
                <path d="M49.6987415,397 C49.6987808,396.999867 52.588475,404.138383 58.6852925,408.723117 C64.7929046,413.301654 74.6960103,411.431 74.6960103,411.431 L72.9694473,405.88974 C72.9052303,405.683613 73.0212816,405.464772 73.2286739,405.400939 C73.3376258,405.367409 73.4558706,405.382561 73.5526993,405.442471 L85.5133276,412.842477 C85.697637,412.956507 85.754047,413.197446 85.6393087,413.380639 C85.6230421,413.406613 85.6037566,413.430602 85.581853,413.452106 L74.9541834,423.88724 C74.7997418,424.038887 74.5508459,424.037387 74.3982676,423.88388 C74.3081924,423.793268 74.2682219,423.664695 74.2911633,423.539374 L75.2127103,418.504253 C75.2123486,418.504417 63.9190173,419.579006 57.0003118,413.561065 C50.0723762,407.547945 49.6987808,396.99968 49.6987415,397 L49.6987415,397 Z" id="Arrow-33-shape-Copy" transform="translate(67.698741, 410.500000) rotate(-255.000000) translate(-67.698741, -410.500000) "></path>
            </g>
        </g>
    </g>
</svg>