<?xml version="1.0" encoding="UTF-8"?>
<svg width="12px" height="15px" viewBox="0 0 12 15" version="1.1" xmlns="http://www.w3.org/2000/svg" xmlns:xlink="http://www.w3.org/1999/xlink">
    <!-- Generator: sketchtool 41.2 (35397) - http://www.bohemiancoding.com/sketch -->
    <title>6EB0A22E-FB92-4FB0-A2F6-F46F4CAEDA1B</title>
    <desc>Created with sketchtool.</desc>
    <defs></defs>
    <g id="Symbols" stroke="none" stroke-width="1" fill="none" fill-rule="evenodd">
        <g id="Theme-Card-Installed-Hover" transform="translate(-119.000000, -103.000000)" fill="#FFFFFF">
            <g id="Group-2" transform="translate(119.000000, 103.000000)">
                <path d="M7.01227222,11.9081946 C9.84394513,11.4273431 12,8.96360937 12,5.99658835 C12,2.68476405 9.3137085,0 6,0 C2.6862915,0 0,2.68476405 0,5.99658835 C0,8.55303114 1.60062915,10.7358395 3.85491738,11.5985819 L4.11201923,14.1096755 L7.01227222,11.9081946 Z M4.13016486,7.96878794 C4.21705254,8.05562863 4.33082874,8.09893793 4.44438272,8.09893793 C4.55815891,8.09893793 4.67193511,8.05562863 4.75882279,7.96878794 L5.99991667,6.72814321 L7.24123276,7.96878794 C7.32812044,8.05562863 7.44189664,8.09893793 7.55545062,8.09893793 C7.66922682,8.09893793 7.78300301,8.05562863 7.86966848,7.96878794 C8.04344384,7.79555076 8.04344384,7.51415139 7.86966848,7.34069211 L6.62835238,6.10004738 L7.86966848,4.85962475 C8.04344384,4.68616547 8.04344384,4.4047661 7.86966848,4.23130682 C7.69611533,4.05784754 7.41500812,4.05784754 7.24123276,4.23130682 L5.99991667,5.47195155 L4.75882279,4.23130682 C4.58504743,4.05784754 4.30394022,4.05784754 4.13016486,4.23130682 C3.95661171,4.4047661 3.95661171,4.68616547 4.13016486,4.85962475 L5.37148095,6.10004738 L4.13016486,7.34069211 C3.95661171,7.51415139 3.95661171,7.79555076 4.13016486,7.96878794 L4.13016486,7.96878794 Z" id="36"></path>
            </g>
        </g>
    </g>
</svg>