<?xml version="1.0" encoding="UTF-8"?>
<svg width="34px" height="32px" viewBox="0 0 34 32" version="1.1" xmlns="http://www.w3.org/2000/svg" xmlns:xlink="http://www.w3.org/1999/xlink">
    <!-- Generator: sketchtool 41.2 (35397) - http://www.bohemiancoding.com/sketch -->
    <title>EAC13270-9939-4A67-A414-09A1A3E383C0</title>
    <desc>Created with sketchtool.</desc>
    <defs></defs>
    <g id="Sprint-3" stroke="none" stroke-width="1" fill="none" fill-rule="evenodd">
        <g id="sprint_3/006-Installed-Styles-Zero" transform="translate(-80.000000, -120.000000)" fill="#95A5A6">
            <g id="Popout-Background" transform="translate(28.000000, 25.000000)">
                <path d="M49.6987415,98.380722 C49.6987808,98.3805891 52.588475,105.519105 58.6852925,110.103839 C64.7929046,114.682376 74.6960103,112.811722 74.6960103,112.811722 L72.9694473,107.270462 C72.9052303,107.064335 73.0212816,106.845494 73.2286739,106.781661 C73.3376258,106.748131 73.4558706,106.763283 73.5526993,106.823193 L85.5133276,114.223199 C85.697637,114.337229 85.754047,114.578168 85.6393087,114.761361 C85.6230421,114.787335 85.6037566,114.811324 85.581853,114.832828 L74.9541834,125.267962 C74.7997418,125.419609 74.5508459,125.418109 74.3982676,125.264602 C74.3081924,125.17399 74.2682219,125.045417 74.2911633,124.920096 L75.2127103,119.884975 C75.2123486,119.885139 63.9190173,120.959728 57.0003118,114.941787 C50.0723762,108.928667 49.6987808,98.3804016 49.6987415,98.380722 L49.6987415,98.380722 Z" id="Arrow-33-shape" transform="translate(67.698741, 111.880722) scale(1, -1) rotate(-255.000000) translate(-67.698741, -111.880722) "></path>
            </g>
        </g>
    </g>
</svg>